<svg width="80" height="80" viewBox="0 0 80 80" fill="none"
    xmlns="http://www.w3.org/2000/svg">
    <path d="M44.7213 20.8389L44.7212 20.8386C44.6331 20.553 44.5351 20.2192 44.4304 19.8623C44.2539 19.2611 44.0583 18.5948 43.8589 17.9846C43.5319 16.9834 43.1263 15.9046 42.5936 15.0153C42.0853 14.1668 41.2819 13.1879 40.0336 12.9046C38.7074 12.6036 37.4703 13.2057 36.4081 14.1658L36.408 14.1659C33.6584 16.6515 33.8796 20.1277 34.9657 23.649C35.1435 24.2253 35.2915 24.7757 35.4397 25.3271C35.5033 25.5635 35.5669 25.8001 35.633 26.039C35.8412 26.7925 36.0769 27.5811 36.3957 28.2553C36.7115 28.923 37.1936 29.6657 38.004 30.1156C38.8654 30.5938 39.8207 30.5932 40.7557 30.3181L40.7562 30.3179C44.5529 29.1995 45.9087 24.6924 44.7213 20.8389Z" fill="white" stroke="#005FA1" stroke-width="3.01"/>
    <path fill-rule="evenodd" clip-rule="evenodd" d="M5.53586 31.667L4 38.4934C4 38.4934 45.5546 61.0879 47.011 61.667C48.4674 62.2462 57.4428 65.6588 61.6517 64.8874C65.8605 64.116 68.75 61.667 68.75 61.667C68.75 61.667 58.2388 62.083 50.4921 58.2688C42.7453 54.4545 5.53586 31.667 5.53586 31.667Z" fill="white"/>
    <path fill-rule="evenodd" clip-rule="evenodd" d="M6.64307 34.8038C6.64307 34.8038 16.5309 41.0109 20.7304 43.6262C31.9403 50.6072 42.5214 57.6163 49.8301 60.6504C64.9003 66.9065 71.4912 65.4092 74.6876 62.3951C77.8839 59.381 80.1783 54.7087 74.6876 51.1982C69.1968 47.6877 70.642 50.9606 63.7064 46.047C56.7708 41.1334 46.6068 25.5616 45.8911 22.803C45.1754 20.0444 38.9272 27.9179 35.1849 26.5844C31.4426 25.251 29.5733 25.9814 28.8363 22.803C28.0993 19.6246 27.3045 14.7482 26.1342 13.0035C24.9639 11.2588 22.1517 7.98574 17.2339 13.0035C12.3162 18.0212 8.0587 29.5248 8.0587 29.5248L6.64307 34.8038Z" fill="#0097FF"/>
    <path d="M4 38.6004L2.52076 38.3231C2.40471 38.9422 2.68647 39.5681 3.22688 39.8917L4 38.6004ZM4 38.6004C3.22688 39.8917 3.22707 39.8918 3.22739 39.892L3.22872 39.8928L3.23385 39.8958L3.25386 39.9078L3.33236 39.9547L3.63835 40.1371C3.90668 40.2969 4.30123 40.5313 4.80708 40.8306C5.81876 41.4292 7.27576 42.2872 9.05866 43.3261C12.6239 45.4035 17.495 48.2056 22.7159 51.1026C27.9346 53.9984 33.514 56.9951 38.4929 59.459C43.4353 61.9049 47.8984 63.8831 50.8379 64.6766C56.442 66.1894 59.8333 66.6548 62.543 66.4647C64.6951 66.3137 66.3921 65.7365 68.2347 65.1098C68.697 64.9526 69.1684 64.7922 69.6585 64.6347L69.6587 64.6347C71.9604 63.8946 74.3716 62.0244 75.7316 59.7668C76.4221 58.6206 76.893 57.2886 76.8606 55.8853C76.8274 54.4463 76.2658 53.0534 75.1 51.8531M4 38.6004C2.52076 38.3231 2.52083 38.3228 2.5209 38.3224L2.52113 38.3212L2.52183 38.3175L2.52426 38.3046L2.53326 38.2578C2.54109 38.2172 2.55261 38.1582 2.56785 38.0818C2.59833 37.9289 2.64371 37.7061 2.70428 37.4213C2.82539 36.8517 3.00738 36.0334 3.25263 35.0292C3.7427 33.0224 4.48754 30.2643 5.50716 27.2604C7.51816 21.3358 10.6985 14.141 15.3211 10.0522L15.3211 10.0522C17.3904 8.22193 19.3268 7.34301 21.1432 7.51617C23.0038 7.69353 24.2408 8.92067 25.0107 10.1287C25.782 11.339 26.2321 12.745 26.4896 13.7847C26.6213 14.3163 26.709 14.7787 26.7642 15.1109C26.7918 15.2775 26.8115 15.4125 26.8246 15.5084C26.8311 15.5564 26.836 15.5948 26.8394 15.6225L26.8435 15.656L26.8447 15.6667L26.8451 15.6704L26.8453 15.6719C26.8453 15.6725 26.8454 15.6731 25.3496 15.839L75.1 51.8531M43.5618 22.7493L44.8365 21.949C44.5695 21.5238 44.1081 21.2597 43.6062 21.2449C43.1058 21.2302 42.631 21.4652 42.3392 21.8717L42.3389 21.8722C42.3386 21.8726 42.3383 21.873 42.338 21.8734C42.3377 21.8737 42.3375 21.874 42.3373 21.8743C42.3371 21.8746 42.3368 21.875 42.3366 21.8753L42.335 21.8775C42.3297 21.8846 42.3198 21.8979 42.3054 21.9169C42.2765 21.9549 42.2294 22.0155 42.1651 22.0943C42.0362 22.2522 41.8393 22.4813 41.5807 22.7484C41.0593 23.2867 40.3097 23.9554 39.3832 24.5083C37.5742 25.5878 35.1389 26.2225 32.2117 24.5783C29.1905 22.8813 27.8827 20.686 27.3019 18.9599C27.0069 18.0834 26.8951 17.312 26.8566 16.7688C26.8374 16.498 26.8366 16.2867 26.8399 16.1511C26.8415 16.0834 26.8441 16.0349 26.8459 16.0076C26.8468 15.994 26.8474 15.9858 26.8477 15.9831C26.8477 15.983 26.8477 15.983 26.8477 15.983C26.8478 15.9817 26.8478 15.9818 26.8476 15.9833L26.8473 15.9866L26.8471 15.9891L43.5618 22.7493ZM43.5618 22.7493C44.8365 21.949 44.8365 21.9491 44.8365 21.9492L44.8369 21.9497L44.8385 21.9523L44.8452 21.9629L44.8722 22.0059L44.9793 22.1755C45.0735 22.3246 45.2127 22.5442 45.3916 22.8251C45.7494 23.3869 46.2661 24.1936 46.9004 25.1714C48.1695 27.1277 49.907 29.765 51.7833 32.4935C53.6619 35.2253 55.6688 38.0325 57.4781 40.3351C58.3831 41.4868 59.2272 42.4976 59.9727 43.3035C60.7352 44.128 61.3313 44.6683 61.7421 44.9417C63.5126 46.1193 65.3401 46.7785 67.3018 47.4861C67.6333 47.6057 67.9687 47.7266 68.3082 47.8517C70.6012 48.6963 73.026 49.7167 75.1 51.8531M43.5618 22.7493L75.1 51.8531" stroke="#005FA1" stroke-width="3.01" stroke-linecap="round" stroke-linejoin="round"/>
    <path d="M6.64307 23.667C17.6252 28.5301 20.7005 33.8711 19.6704 38.3337" stroke="#005FA1" stroke-width="2.71237"/>
    <path d="M75.3572 52.2518C64.604 53.5431 58.208 53.8017 54.2144 47.667" stroke="#005FA1" stroke-width="2.71237"/>
    <path d="M5.32161 30.4649V29.3899H4.96319L4.67648 29.605L5.32161 30.4649ZM4.74732 32.4486L4.17205 33.3568L4.17339 33.3576L4.74732 32.4486ZM5.90835 30.639L5.32083 31.5392L5.32834 31.5441L5.33592 31.5489L5.90835 30.639ZM5.92185 30.6475L5.34943 31.5574L5.34977 31.5576L5.92185 30.6475ZM6.00443 30.6994L5.43234 31.6095L5.4327 31.6097L6.00443 30.6994ZM6.32804 30.9026L5.75631 31.813L5.75649 31.8131L6.32804 30.9026ZM7.56245 31.6768L8.13325 30.7658L7.56245 31.6768ZM12.0128 34.4591L12.5818 33.547L12.0128 34.4591ZM25.9053 43.0693L26.4685 42.1537L25.9053 43.0693ZM40.8606 52.1369L41.4088 51.2122V51.2122L40.8606 52.1369ZM50.0762 57.2942L50.5024 56.3072L50.5024 56.3072L50.0762 57.2942ZM50.0763 57.2942L50.5025 56.3073L50.5024 56.3073L50.0763 57.2942ZM64.4247 60.5853L64.5522 59.5179H64.5522L64.4247 60.5853ZM70.3494 61.1323L70.42 60.0596L70.3494 61.1323ZM72.1146 61.2329L72.165 60.159L72.1146 61.2329ZM72.5885 61.2534L72.5467 62.3276L72.5485 62.3276L72.5885 61.2534ZM72.7096 61.2579L72.6696 62.3321L72.6728 62.3323L72.7096 61.2579ZM72.7395 61.2589L72.7027 62.3333L72.7041 62.3333L72.7395 61.2589ZM72.7466 61.2591L72.7823 60.1847L72.7819 60.1847L72.7466 61.2591ZM72.7481 61.2592L72.7124 62.3336L72.7174 62.3338L72.7481 61.2592ZM72.7484 61.2592L73.4957 60.4865L73.196 60.1965L72.7791 60.1846L72.7484 61.2592ZM72.8872 63.3947L73.0598 64.4557L73.4697 64.389L73.7282 64.0642L72.8872 63.3947ZM72.6565 63.4073L72.7134 62.3338L72.7034 62.3333L72.6933 62.333L72.6565 63.4073ZM72.6342 63.4066L72.5942 64.4808L72.5973 64.4809L72.6342 63.4066ZM72.5049 63.4018L72.4632 64.4759L72.465 64.476L72.5049 63.4018ZM72.0137 63.3805L71.9632 64.4543L72.0137 63.3805ZM70.2081 63.2776L70.2788 62.205L70.2081 63.2776ZM64.1697 62.7202L64.0422 63.7876L64.1697 62.7202ZM49.2239 59.268L48.6688 60.1886L48.731 60.2261L48.7976 60.2549L49.2239 59.268ZM4.74998 32.4503L4.17604 33.3593L4.17704 33.3599L4.74998 32.4503ZM4.75593 32.4541L4.183 33.3637L4.1835 33.364L4.75593 32.4541ZM4.77729 32.4675L4.20486 33.3774L4.2052 33.3776L4.77729 32.4675ZM4.8605 32.5198L4.28841 33.4299L4.28877 33.4302L4.8605 32.5198ZM5.18493 32.7236L4.6132 33.6339L4.61337 33.634L5.18493 32.7236ZM6.42084 33.4986L5.85004 34.4096H5.85004L6.42084 33.4986ZM10.8748 36.2832L10.3057 37.1952L10.8748 36.2832ZM24.779 44.9007L24.2158 45.8163L24.779 44.9007ZM49.2238 59.268L48.7976 60.2549L49.7479 58.3294L49.2238 59.268ZM5.89674 30.6317L5.33474 31.5481L6.47002 29.7223L5.89674 30.6317ZM5.89672 30.6317L5.32247 31.5404L5.32857 31.5443L5.33472 31.5481L5.89672 30.6317ZM49.3594 28.8853L49.9267 29.7984L49.3594 28.8853ZM49.7052 27.4048L48.792 27.9721L49.7052 27.4048ZM42.8745 32.9142L43.4418 33.8274L42.8745 32.9142ZM41.7398 31.088L42.3071 32.0011L41.7398 31.088ZM48.2247 27.059L48.792 27.9721L48.2247 27.059ZM50.7723 32.9307L51.3135 33.8596L50.7723 32.9307ZM51.1601 31.4607L50.2312 32.0018L51.1601 31.4607ZM45.759 35.8514L45.2179 34.9225L45.759 35.8514ZM44.289 35.4636L45.2179 34.9225V34.9225L44.289 35.4636ZM44.6768 33.9936L45.2179 34.9225L44.6768 33.9936ZM49.6901 31.073L49.1489 30.1441L49.6901 31.073ZM53.6831 35.8514L54.2242 36.7802L53.6831 35.8514ZM54.0708 34.3814L53.1419 34.9225L54.0708 34.3814ZM48.6698 38.772L48.1286 37.8431L48.6698 38.772ZM47.1998 38.3843L48.1286 37.8431V37.8431L47.1998 38.3843ZM47.5875 36.9143L48.1286 37.8431L47.5875 36.9143ZM52.6008 33.9936L52.0597 33.0648L52.6008 33.9936ZM29.2806 24.6096L29.7974 25.5522L29.7974 25.5522L29.2806 24.6096ZM29.7064 23.1502L30.649 22.6333L29.7064 23.1502ZM16.8774 31.4102L17.3943 32.3528L16.8774 31.4102ZM15.418 30.9844L16.3606 30.4676V30.4676L15.418 30.9844ZM15.8438 29.525L16.3606 30.4676L15.8438 29.525ZM28.2469 22.7244L27.7301 21.7818V21.7818L28.2469 22.7244ZM60.9616 45.7041L61.4098 46.6812H61.4098L60.9616 45.7041ZM61.4906 44.2788L60.5135 44.727L61.4906 44.2788ZM41.8504 54.47L41.4023 53.4929V53.4929L41.8504 54.47ZM40.4252 53.941L39.448 54.3892V54.3892L40.4252 53.941ZM40.9541 52.5157L40.5059 51.5386L40.9541 52.5157ZM60.0653 43.7498L60.5135 44.727H60.5135L60.0653 43.7498ZM4.67648 29.605C3.84035 30.2323 3.5962 31.068 3.57256 31.707C3.56112 32.0161 3.59947 32.2826 3.64004 32.4721C3.6606 32.5682 3.68261 32.6486 3.70133 32.7097C3.71069 32.7402 3.71951 32.7669 3.72734 32.7893C3.73116 32.8003 3.73528 32.8117 3.73959 32.8232C3.74151 32.8283 3.74479 32.8369 3.74892 32.8472C3.7505 32.8512 3.75512 32.8627 3.7614 32.8771C3.76375 32.8825 3.77177 32.901 3.78313 32.924C3.78985 32.9374 3.80907 32.9733 3.82194 32.9957C3.85171 33.0432 4.01564 33.2362 4.17205 33.3568L5.3226 31.5405C5.479 31.6611 5.64292 31.854 5.67268 31.9015C5.68554 31.9239 5.70474 31.9598 5.71144 31.9731C5.72276 31.9961 5.73073 32.0144 5.73301 32.0197C5.73915 32.0338 5.74358 32.0448 5.74493 32.0482C5.74857 32.0573 5.75117 32.0642 5.75221 32.0669C5.75476 32.0737 5.75635 32.0782 5.757 32.0801C5.75846 32.0843 5.75833 32.0841 5.75707 32.08C5.75456 32.0719 5.74873 32.0516 5.74242 32.0221C5.72925 31.9606 5.71776 31.8764 5.72109 31.7865C5.72436 31.698 5.7413 31.6191 5.77263 31.5511C5.80116 31.4892 5.85309 31.4101 5.96673 31.3248L4.67648 29.605ZM6.49587 29.7387C6.15775 29.5181 5.75301 29.3899 5.32161 29.3899V31.5399C5.32341 31.5399 5.32324 31.5401 5.32207 31.5397C5.32116 31.5395 5.32074 31.5392 5.32083 31.5392L6.49587 29.7387ZM6.49428 29.7376L6.48078 29.7291L5.33592 31.5489L5.34943 31.5574L6.49428 29.7376ZM6.57652 29.7892L6.49394 29.7373L5.34977 31.5576L5.43234 31.6095L6.57652 29.7892ZM6.89977 29.9923L6.57616 29.789L5.4327 31.6097L5.75631 31.813L6.89977 29.9923ZM8.13325 30.7658C7.6003 30.4319 7.18327 30.1702 6.8996 29.9922L5.75649 31.8131C6.04064 31.9915 6.45818 32.2534 6.99164 32.5877L8.13325 30.7658ZM12.5818 33.547C10.7286 32.3908 9.19915 31.4337 8.13325 30.7658L6.99164 32.5877C8.05856 33.2562 9.58917 34.214 11.4438 35.3711L12.5818 33.547ZM26.4685 42.1537C21.2898 38.9684 16.2887 35.8597 12.5818 33.547L11.4438 35.3711C15.153 37.6853 20.1583 40.7966 25.3422 43.985L26.4685 42.1537ZM41.4088 51.2122C36.9999 48.5983 31.6488 45.3398 26.4685 42.1537L25.3422 43.985C30.5261 47.1734 35.8886 50.4389 40.3124 53.0616L41.4088 51.2122ZM50.5024 56.3072C49.2301 55.7579 45.8847 53.8658 41.4088 51.2122L40.3124 53.0616C44.7359 55.6841 48.2211 57.6641 49.65 58.2811L50.5024 56.3072ZM50.5024 56.3073L50.5024 56.3072L49.65 58.2811L49.6501 58.2811L50.5024 56.3073ZM64.5522 59.5179C59.8551 58.9569 54.3524 57.9701 50.5025 56.3073L49.65 58.2811C53.8034 60.0749 59.5695 61.0881 64.2972 61.6528L64.5522 59.5179ZM70.42 60.0596C68.935 59.9618 66.8697 59.7947 64.5522 59.5179L64.2972 61.6528C66.6611 61.9351 68.7654 62.1053 70.2788 62.205L70.42 60.0596ZM72.165 60.159C71.7573 60.1399 71.1619 60.1085 70.42 60.0596L70.2788 62.205C71.0354 62.2548 71.6444 62.287 72.0641 62.3067L72.165 60.159ZM72.6302 60.1792C72.5256 60.1751 72.3688 60.1686 72.165 60.159L72.0641 62.3067C72.274 62.3165 72.4366 62.3233 72.5467 62.3276L72.6302 60.1792ZM72.7495 60.1836L72.6284 60.1791L72.5485 62.3276L72.6696 62.3321L72.7495 60.1836ZM72.7763 60.1845L72.7464 60.1835L72.6728 62.3323L72.7027 62.3333L72.7763 60.1845ZM72.7819 60.1847L72.7748 60.1845L72.7041 62.3333L72.7112 62.3336L72.7819 60.1847ZM72.7838 60.1848L72.7823 60.1847L72.7108 62.3335L72.7124 62.3336L72.7838 60.1848ZM72.7791 60.1846L72.7788 60.1846L72.7174 62.3338L72.7177 62.3338L72.7791 60.1846ZM73.7282 64.0642C74.4551 63.151 74.4165 62.2046 74.1618 61.5255C74.0433 61.2093 73.8838 60.9595 73.7587 60.7917C73.695 60.7061 73.6367 60.6371 73.5912 60.5864C73.5684 60.561 73.5484 60.5398 73.5323 60.5232C73.5243 60.5148 73.5171 60.5076 73.511 60.5015C73.5079 60.4984 73.5051 60.4956 73.5026 60.4931C73.5013 60.4919 73.5001 60.4907 73.499 60.4896C73.4984 60.489 73.4978 60.4885 73.4973 60.488C73.497 60.4877 73.4966 60.4874 73.4965 60.4872C73.4961 60.4869 73.4957 60.4865 72.7484 61.2592C72.001 62.0319 72.0007 62.0316 72.0003 62.0312C72.0002 62.0311 71.9998 62.0307 71.9996 62.0305C71.9991 62.03 71.9986 62.0296 71.9982 62.0292C71.9973 62.0283 71.9965 62.0275 71.9957 62.0267C71.9942 62.0252 71.9928 62.0239 71.9917 62.0228C71.9894 62.0205 71.988 62.0191 71.9874 62.0183C71.986 62.017 71.9875 62.0185 71.9913 62.0227C71.9992 62.0314 72.015 62.0498 72.0345 62.076C72.0761 62.1319 72.1201 62.204 72.1487 62.2804C72.1762 62.3537 72.1829 62.4121 72.1773 62.4609C72.1726 62.5016 72.1541 62.5895 72.0461 62.7252L73.7282 64.0642ZM72.5995 64.4808C72.7514 64.4889 72.9057 64.4808 73.0598 64.4557L72.7145 62.3337C72.713 62.3339 72.7128 62.3338 72.7134 62.3338L72.5995 64.4808ZM72.5973 64.4809L72.6196 64.4817L72.6933 62.333L72.671 62.3322L72.5973 64.4809ZM72.465 64.476L72.5942 64.4808L72.6741 62.3323L72.5449 62.3275L72.465 64.476ZM71.9632 64.4543C72.1792 64.4645 72.3476 64.4715 72.4632 64.4759L72.5467 62.3276C72.4366 62.3233 72.274 62.3165 72.0641 62.3067L71.9632 64.4543ZM70.1375 64.3503C70.909 64.4011 71.5314 64.434 71.9632 64.4543L72.0641 62.3067C71.6444 62.287 71.0354 62.2548 70.2788 62.205L70.1375 64.3503ZM64.0422 63.7876C66.4525 64.0755 68.5959 64.2488 70.1375 64.3503L70.2788 62.205C68.7654 62.1053 66.6611 61.9351 64.2972 61.6528L64.0422 63.7876ZM48.7976 60.2549C53.2542 62.1797 59.2836 63.2192 64.0422 63.7876L64.2972 61.6528C59.5696 61.0881 53.8034 60.075 49.6501 58.2811L48.7976 60.2549ZM49.779 58.3474L5.30244 31.5281L4.19221 33.3692L48.6688 60.1886L49.779 58.3474ZM4.17339 33.3576L4.17604 33.3593L5.32391 31.5413L5.32126 31.5397L4.17339 33.3576ZM4.17339 33.3576L4.17604 33.3593L5.32391 31.5413L5.32126 31.5397L4.17339 33.3576ZM4.17704 33.3599L4.183 33.3637L5.32887 31.5445L5.32291 31.5407L4.17704 33.3599ZM4.17704 33.3599L4.183 33.3637L5.32887 31.5445L5.32291 31.5407L4.17704 33.3599ZM4.1835 33.364L4.20486 33.3774L5.34972 31.5576L5.32836 31.5441L4.1835 33.364ZM4.1835 33.364L4.20486 33.3774L5.34972 31.5576L5.32836 31.5441L4.1835 33.364ZM4.2052 33.3776L4.28841 33.4299L5.43259 31.6097L5.34938 31.5574L4.2052 33.3776ZM4.2052 33.3776L4.28841 33.4299L5.43259 31.6097L5.34938 31.5574L4.2052 33.3776ZM4.28877 33.4302L4.6132 33.6339L5.75666 31.8132L5.43223 31.6094L4.28877 33.4302ZM4.28877 33.4302L4.6132 33.6339L5.75666 31.8132L5.43223 31.6094L4.28877 33.4302ZM4.61337 33.634C4.89802 33.8127 5.31606 34.075 5.85004 34.4096L6.99164 32.5877C6.45818 32.2534 6.04064 31.9915 5.75649 31.8131L4.61337 33.634ZM4.61378 33.6343L5.8497 34.4094L6.99199 32.5879L5.75607 31.8128L4.61378 33.6343ZM5.85004 34.4096C6.91798 35.0788 8.44978 36.0373 10.3057 37.1952L11.4438 35.3711C9.58917 34.214 8.05856 33.2562 6.99164 32.5877L5.85004 34.4096ZM5.85097 34.4102L10.3049 37.1947L11.4446 35.3717L6.99072 32.5871L5.85097 34.4102ZM10.3057 37.1952C14.0173 39.5109 19.0267 42.6247 24.2158 45.8163L25.3422 43.985C20.1583 40.7966 15.153 37.6853 11.4438 35.3711L10.3057 37.1952ZM10.3084 37.1969L24.2127 45.8144L25.3453 43.9869L11.4411 35.3694L10.3084 37.1969ZM24.2158 45.8163C29.4033 49.0069 34.7773 52.2795 39.2159 54.911L40.3124 53.0616C35.8886 50.4389 30.5261 47.1734 25.3422 43.985L24.2158 45.8163ZM24.2216 45.8199L39.2068 54.9055L40.3215 53.0671L25.3363 43.9814L24.2216 45.8199ZM39.2159 54.911C43.5879 57.503 47.2122 59.5703 48.7976 60.2549L49.65 58.2811C48.221 57.664 44.7359 55.6841 40.3124 53.0616L39.2159 54.911ZM39.2401 54.9249L48.6997 60.2066L49.7479 58.3294L40.2882 53.0477L39.2401 54.9249ZM6.47002 29.7223C6.46994 29.7222 6.46963 29.722 6.46929 29.7218C6.46919 29.7218 6.469 29.7216 6.46876 29.7215C6.46865 29.7214 6.468 29.721 6.46717 29.7205C6.46696 29.7204 6.46559 29.7195 6.46384 29.7184C6.46349 29.7182 6.46041 29.7163 6.45651 29.7139C6.45617 29.7137 6.4483 29.7089 6.43838 29.7031C6.43524 29.7013 6.42743 29.6968 6.42276 29.6941C6.41507 29.6899 6.39243 29.6778 6.37737 29.6701C6.33588 29.6504 5.87686 29.5567 5.46319 29.6478C4.84216 30.4221 5.16982 31.4237 5.22266 31.4691C5.23952 31.4824 5.26499 31.5015 5.27341 31.5075C5.27841 31.5111 5.28673 31.5168 5.29005 31.5191C5.29637 31.5234 5.30136 31.5267 5.30324 31.528C5.30757 31.5309 5.31098 31.5331 5.31197 31.5337C5.31455 31.5354 5.31659 31.5367 5.31707 31.537C5.3185 31.5379 5.31961 31.5386 5.31985 31.5388C5.32059 31.5392 5.32118 31.5396 5.3213 31.5397C5.32152 31.5398 5.3217 31.5399 5.32179 31.54C5.32198 31.5401 5.32214 31.5402 5.3222 31.5403C5.32233 31.5403 5.32246 31.5404 5.32247 31.5404L6.47096 29.7229C6.46968 29.7221 6.47165 29.7233 6.47326 29.7243C6.47349 29.7245 6.47461 29.7252 6.47603 29.7261C6.47651 29.7264 6.47855 29.7277 6.48113 29.7294C6.48212 29.73 6.48553 29.7322 6.48986 29.7351C6.49174 29.7364 6.49673 29.7397 6.50305 29.744C6.50637 29.7463 6.51469 29.7521 6.51969 29.7556C6.52811 29.7616 6.55358 29.7807 6.57044 29.794C6.62328 29.8394 6.95094 30.841 6.32991 31.6153C5.91624 31.7064 5.45722 31.6127 5.41573 31.593C5.40067 31.5854 5.37803 31.5732 5.37034 31.569C5.36567 31.5663 5.35786 31.5618 5.35472 31.56C5.3448 31.5542 5.33693 31.5494 5.33659 31.5492C5.33269 31.5468 5.32961 31.5449 5.32926 31.5447C5.32751 31.5436 5.32614 31.5427 5.32594 31.5426C5.32511 31.5421 5.32447 31.5417 5.32437 31.5416C5.32414 31.5415 5.32396 31.5414 5.32387 31.5413C5.32359 31.5411 5.32339 31.541 5.32347 31.5411L6.47002 29.7223ZM5.33472 31.5481L5.33474 31.5481L6.45874 29.7153L6.45872 29.7153L5.33472 31.5481ZM49.9267 29.7984C50.9353 29.1718 51.2449 27.8461 50.6183 26.8375L48.792 27.9721L49.9267 29.7984ZM43.4418 33.8274L49.9267 29.7984L48.792 27.9721L42.3071 32.0011L43.4418 33.8274ZM40.4809 33.1357C41.1075 34.1443 42.4332 34.454 43.4418 33.8274L42.3071 32.0011L40.4809 33.1357ZM41.1725 30.1749C40.1639 30.8015 39.8543 32.1271 40.4809 33.1357L42.3071 32.0011L41.1725 30.1749ZM47.6574 26.1459L41.1725 30.1749L42.3071 32.0011L48.792 27.9721L47.6574 26.1459ZM50.6183 26.8375C49.9917 25.8289 48.666 25.5193 47.6574 26.1459L48.792 27.9721L50.6183 26.8375ZM51.3135 33.8596C52.3395 33.2618 52.6867 31.9456 52.0889 30.9196L50.2312 32.0018L51.3135 33.8596ZM46.3002 36.7802L51.3135 33.8596L50.2312 32.0018L45.2179 34.9225L46.3002 36.7802ZM43.3602 36.0048C43.9579 37.0308 45.2742 37.3779 46.3002 36.7802L45.2179 34.9225L43.3602 36.0048ZM44.1356 33.0648C43.1096 33.6625 42.7624 34.9788 43.3602 36.0048L45.2179 34.9225V34.9225L44.1356 33.0648ZM49.1489 30.1441L44.1356 33.0648L45.2179 34.9225L50.2312 32.0018L49.1489 30.1441ZM52.0889 30.9196C51.4912 29.8936 50.1749 29.5464 49.1489 30.1441L50.2312 32.0018L52.0889 30.9196ZM54.2242 36.7802C55.2502 36.1825 55.5974 34.8662 54.9997 33.8402L53.1419 34.9225L54.2242 36.7802ZM49.2109 39.7009L54.2242 36.7802L53.1419 34.9225L48.1286 37.8431L49.2109 39.7009ZM46.2709 38.9254C46.8686 39.9514 48.1849 40.2986 49.2109 39.7009L48.1286 37.8431L46.2709 38.9254ZM47.0463 35.9854C46.0203 36.5831 45.6732 37.8994 46.2709 38.9254L48.1286 37.8431V37.8431L47.0463 35.9854ZM52.0597 33.0648L47.0463 35.9854L48.1286 37.8431L53.1419 34.9225L52.0597 33.0648ZM54.9997 33.8402C54.402 32.8142 53.0857 32.467 52.0597 33.0648L53.1419 34.9225L54.9997 33.8402ZM29.7974 25.5522C30.8386 24.9813 31.2199 23.6745 30.649 22.6333L28.7638 23.667L29.7974 25.5522ZM17.3943 32.3528L29.7974 25.5522L28.7638 23.667L16.3606 30.4676L17.3943 32.3528ZM14.4754 31.5013C15.0463 32.5424 16.3531 32.9237 17.3943 32.3528L16.3606 30.4676V30.4676L14.4754 31.5013ZM15.327 28.5824C14.2858 29.1533 13.9045 30.4601 14.4754 31.5013L16.3606 30.4676V30.4676L15.327 28.5824ZM27.7301 21.7818L15.327 28.5824L16.3606 30.4676L28.7638 23.667L27.7301 21.7818ZM30.649 22.6333C30.0781 21.5922 28.7713 21.2109 27.7301 21.7818L28.7638 23.667V23.667L30.649 22.6333ZM61.4098 46.6812C62.4891 46.1862 62.9627 44.9099 62.4677 43.8306L60.5135 44.727H60.5135L61.4098 46.6812ZM42.2986 55.4471L61.4098 46.6812L60.5135 44.727L41.4023 53.4929L42.2986 55.4471ZM39.448 54.3892C39.9431 55.4685 41.2193 55.9422 42.2986 55.4471L41.4023 53.4929V53.4929L39.448 54.3892ZM40.5059 51.5386C39.4266 52.0337 38.953 53.3099 39.448 54.3892L41.4023 53.4929V53.4929L40.5059 51.5386ZM59.6171 42.7727L40.5059 51.5386L41.4023 53.4929L60.5135 44.727L59.6171 42.7727ZM62.4677 43.8306C61.9726 42.7513 60.6964 42.2777 59.6171 42.7727L60.5135 44.727L62.4677 43.8306Z" fill="#005FA1"/>
</svg>
