<svg xmlns="http://www.w3.org/2000/svg" width="80" height="80" viewBox="0 0 80 80">
    <g fill="none" fill-rule="evenodd">
        <rect width="57.256" height="42.008" x="14.414" y="21.354" fill="#0097FF" rx="2.16"/>
        <path fill="#005FA1" fill-rule="nonzero" d="M11.87 20.646V58.25a.9.9 0 0 0 .9.9h53.46a.9.9 0 0 0 .9-.9V20.646a.9.9 0 0 0-.9-.9H12.77a.9.9 0 0 0-.9.9zm0-3.586h55.26c1.5 0 2.717 1.203 2.717 2.686V59.15c0 1.484-1.217 2.687-2.718 2.687H11.871c-1.501 0-2.718-1.203-2.718-2.687V19.746c0-1.483 1.217-2.686 2.718-2.686z"/>
        <path fill="#FFF" fill-rule="nonzero" d="M20.445 24.247a1.986 1.986 0 0 0-1.987 1.968v25.391c0 1.096.89 1.984 1.987 1.984a1.986 1.986 0 0 0 1.987-1.984V26.215a1.986 1.986 0 0 0-1.987-1.968zM29.724 24.247a1.986 1.986 0 0 0-1.987 1.968v25.391c0 1.096.89 1.984 1.987 1.984a1.986 1.986 0 0 0 1.988-1.984V26.215a1.986 1.986 0 0 0-1.988-1.968zM39.003 24.247a1.986 1.986 0 0 0-1.987 1.968v25.391c0 1.096.89 1.984 1.987 1.984a1.986 1.986 0 0 0 1.988-1.984V26.215a1.986 1.986 0 0 0-1.988-1.968zM48.282 24.247a1.986 1.986 0 0 0-1.987 1.968v25.391c0 1.096.89 1.984 1.987 1.984a1.986 1.986 0 0 0 1.988-1.984V26.215a1.986 1.986 0 0 0-1.988-1.968z"/>
        <path fill="#005FA1" fill-rule="nonzero" d="M2.473 17.432a1.474 1.474 0 0 0 1.472-1.47v-3.116c0-.498.403-.903.902-.906h3.128c.813 0 1.473-.658 1.473-1.47 0-.812-.66-1.47-1.473-1.47H4.847A3.85 3.85 0 0 0 1 12.846v3.122c.003.81.662 1.464 1.473 1.464zM7.975 65.873H4.847a.906.906 0 0 1-.902-.905V61.85c0-.812-.659-1.47-1.472-1.47-.814 0-1.473.658-1.473 1.47v3.123a3.85 3.85 0 0 0 3.847 3.845h3.128c.813 0 1.473-.658 1.473-1.47 0-.812-.66-1.47-1.473-1.47v-.006zM76.527 60.381c-.813 0-1.472.658-1.472 1.47v3.123a.906.906 0 0 1-.902.905h-3.128c-.813 0-1.473.658-1.473 1.47 0 .812.66 1.47 1.473 1.47h3.128a3.856 3.856 0 0 0 2.723-1.13A3.842 3.842 0 0 0 78 64.968V61.85c0-.812-.66-1.47-1.473-1.47zM74.153 9h-3.128c-.813 0-1.473.658-1.473 1.47 0 .812.66 1.47 1.473 1.47h3.128a.906.906 0 0 1 .902.906v3.122c0 .812.659 1.47 1.472 1.47.814 0 1.473-.658 1.473-1.47v-3.122A3.85 3.85 0 0 0 74.153 9z"/>
        <path fill="#FFF" fill-rule="nonzero" d="M57.562 24.247a1.986 1.986 0 0 0-1.988 1.984v25.375c0 1.096.89 1.984 1.988 1.984a1.986 1.986 0 0 0 1.987-1.984V26.215a1.986 1.986 0 0 0-1.987-1.968z"/>
    </g>
</svg>
