<svg xmlns="http://www.w3.org/2000/svg" width="80" height="80" viewBox="0 0 80 80">
    <g fill="none" fill-rule="evenodd">
        <g transform="translate(15 8)">
            <g transform="translate(7 5.509)">
                <rect width="43" height="60" fill="#0097FF" rx="5.88"/>
                <path fill="#FFF" d="M18.177 37.645l-2.8-4.089-.697-.572s.01-.44.211-.488c.22-.053.63.31.564.195l.217.642 1.253 1.561 1.4 1.71.442.52s.221.372.516.297c.294-.074.368-.52.368-.52s-.33-.498-.294-.669c.036-.17.474-.238.663-.371.188-.134.49-.336.762-.305.272.03.422.116.604.262.282.225.18.563.18.786 0 .223-.441.594-.441.594l-.516.298-.147.371.59-.371.589-.223s1.105 0 1.4-.075c.294-.074 1.547-.669 1.547-.669s1.179-.297 1.326-.297c.148 0 .457-.146.663 0 .207.147.153.201.074.372-.079.17-.148.244-.295.223-.146-.022-.368-.149-.368-.149l-.884.446-.664.149-.589.297-.958.372-1.326.371s-.59.67-.663 1.041c-.074.372-.442 1.19-.442 1.19l.22.52s.516.52.59.966c.074.446.295.298.59.446.294.149.736.446.736.446l.737.595.737.52.737.297s.884.223 1.179.372c.295.148 1.252.669 1.252.669l.663.446.81.223h.738l.294.446s0 .297-.368.223c-.368-.074-.884-.074-.884-.074l-.442-.074s-.59-.447-.884-.521c-.295-.075-1.768-.52-1.768-.52l-1.99-.67s-1.916-.817-2.358-.817c-.442 0-1.179-.074-1.4-.074-.221 0-1.326.743-1.326.743s-1.18.595-1.474.669c-.294.075-1.326.892-1.694 1.04-.369.15-1.327.372-1.548.447-.22.074-1.62.222-1.62.222l-.517.298s-.315.532-.442.595c-.127.062-.506-.018-.567-.07-.06-.054-.003-.112-.224-.112s-.667.104-.756.107c-.089.004-.464-.079-.483-.228-.018-.15.753-.36.753-.36l.702-.371s.315-.16.517-.204c.216-.047.648-.174.648-.174l1.547-.596 1.032-.445s.736-.67 1.03-.818c.296-.148 1.254-.743 1.254-.743l1.031-.67c.156-.1.516-.074.516-.37 0-.298.147-1.116.147-1.116l.108-1.131s-.181-.727-.181-.95c0-.223-.216-.597 0-.892.216-.296.073-.67.073-.67v-.52z"/>
                <rect width="20" height="4" x="10" y="6.491" fill="#FFF" rx="2"/>
                <rect width="20" height="4" x="10" y="14.491" fill="#FFF" rx="2"/>
                <rect width="20" height="4" x="10" y="22.491" fill="#FFF" rx="2"/>
            </g>
            <path fill="#005FA1" fill-rule="nonzero" d="M4 6.065v50.87a2 2 0 0 0 2 2h35a2 2 0 0 0 2-2V6.065a2 2 0 0 0-2-2H6a2 2 0 0 0-2 2zM4 0h39c2.21 0 4 1.82 4 4.065v54.87C47 61.18 45.21 63 43 63H4c-2.21 0-4-1.82-4-4.065V4.065C0 1.82 1.79 0 4 0z"/>
            <circle cx="9" cy="15" r="4" fill="#005FA1"/>
        </g>
        <path fill="#005FA1" d="M17 22h6v3h-6z"/>
        <circle cx="24" cy="38" r="4" fill="#005FA1"/>
        <path fill="#005FA1" d="M17 37h6v3h-6z"/>
        <circle cx="24" cy="54" r="4" fill="#005FA1"/>
        <path fill="#005FA1" d="M17 53h6v3h-6z"/>
    </g>
</svg>
